<?xml version="1.0" encoding="utf-8"?>
<!-- Generator: Adobe Illustrator 21.0.0, SVG Export Plug-In . SVG Version: 6.00 Build 0)  -->
<svg version="1.1" id="Layer_1" xmlns="http://www.w3.org/2000/svg" xmlns:xlink="http://www.w3.org/1999/xlink" x="0px" y="0px"
	 viewBox="0 0 269.1 74.1" style="enable-background:new 0 0 269.1 74.1;" xml:space="preserve">
<style type="text/css">
	.st0{fill:#FFFFFF;}
	.st1{fill:#F04D4E;}
	.st2{fill:#3EAA49;}
</style>
<g>
	<circle class="st0" cx="79.3" cy="45.9" r="22.7"/>
	<g>
		<g>
			<g>
				<path class="st1" d="M80.4,45.3c-0.1-0.1-0.2-0.2-0.3-0.3c-0.2-0.1-0.5-0.3-0.7-0.3s-0.5,0.1-0.7,0.3c-0.3,0.2-0.6,0.6-0.6,1
					c0,0.7,0.6,1.3,1.3,1.3c0.4,0,0.8-0.2,1.1-0.6c0.1-0.2,0.2-0.4,0.2-0.7C80.6,45.8,80.5,45.5,80.4,45.3z"/>
				<path class="st1" d="M80.4,70.2l-1.1-7.1l-1.1,7.1c0.3-0.1,0.7-0.1,1.1-0.1C79.7,70.1,80.1,70.1,80.4,70.2z"/>
				<path class="st1" d="M103.5,45l-7.1,1l7.1,1.1c-0.1-0.3-0.1-0.7-0.1-1.1S103.4,45.3,103.5,45z"/>
				<path class="st1" d="M55.1,47.1l7.1-1.1l-7.1-1c0.1,0.3,0.1,0.7,0.1,1.1S55.1,46.7,55.1,47.1z"/>
				<path class="st1" d="M99.7,32.9l-5.5,4.6l6.6-2.8c-0.2-0.3-0.4-0.5-0.6-0.8C100,33.6,99.8,33.2,99.7,32.9z"/>
				<path class="st1" d="M90.8,24.3L88,30.9l4.6-5.5c-0.3-0.1-0.6-0.3-1-0.5C91.4,24.8,91.1,24.6,90.8,24.3z"/>
				<path class="st1" d="M92.8,67l-4.5-5.6l2.7,6.7c0.3-0.2,0.5-0.4,0.9-0.6S92.5,67.2,92.8,67z"/>
				<path class="st1" d="M101.5,57.3l-6.7-2.5l5.7,4.3c0.1-0.3,0.2-0.7,0.4-1S101.3,57.6,101.5,57.3z"/>
				<path class="st1" d="M59.1,59.3l5.5-4.6L58,57.5c0.2,0.3,0.4,0.5,0.6,0.8C58.8,58.7,58.9,59,59.1,59.3z"/>
				<path class="st1" d="M68.5,67.6l2.2-6.8l-4.1,5.9c0.3,0.1,0.7,0.2,1,0.4S68.2,67.4,68.5,67.6z"/>
				<path class="st1" d="M66.3,25.3l4.4,5.7l-2.5-6.7c-0.3,0.2-0.5,0.4-0.9,0.6C67,25.1,66.7,25.2,66.3,25.3z"/>
				<path class="st1" d="M57.8,34.8l6.7,2.5l-5.7-4.4c-0.1,0.3-0.2,0.6-0.4,1C58.3,34.2,58.1,34.5,57.8,34.8z"/>
				<path class="st1" d="M78.3,21.7l1.1,7.1l1.1-7.1c-0.3,0.1-0.7,0.1-1.1,0.1C79,21.8,78.6,21.8,78.3,21.7z"/>
			</g>
			<path class="st2" d="M79.3,21.4c-13.5,0-24.5,11-24.5,24.5s11,24.5,24.5,24.5h24.6V45.9C103.9,32.4,92.9,21.4,79.3,21.4z
				 M58,45.9c0-11.8,9.6-21.3,21.3-21.3c8.6,0,16.1,5.1,19.5,12.4l0,0c0.5,1,0.9,2.1,1.2,3.2c0,0.1,0,0.2,0.1,0.3
				c0.1,0.6,0.3,1.1,0.4,1.7c0.1,0.4,0.2,0.9,0.2,1.3c0,0.2,0,0.4,0.1,0.6c0.1,0.6,0.1,1.2,0.1,1.8V46c0,11.8-9.6,21.4-21.4,21.4
				c-0.1,0-0.1,0-0.2,0c-0.6,0-1.1,0-1.6-0.1c-0.3,0-0.6-0.1-0.9-0.1c-0.2,0-0.5-0.1-0.7-0.1c-0.8-0.1-1.7-0.3-2.5-0.6l0,0
				C64.5,63.9,58,55.7,58,45.9z"/>
			<path class="st2" d="M27.7,21.4c-13.6,0-24.6,11-24.6,24.6s11,24.6,24.6,24.6c7.1,0,13.9-3.1,18.6-8.5l0.8-0.9l-7.3-5l-0.6,0.7
				c-3,3.2-7.1,4.9-11.5,4.9c-7,0-13.2-4.7-15.2-11.4H52l0.1-0.9c1-7.1-1.1-14.2-5.8-19.6C41.7,24.5,34.9,21.4,27.7,21.4z
				 M27.7,30.2c7.1,0,13.2,4.6,15.2,11.3H12.6C14.5,34.9,20.7,30.2,27.7,30.2z"/>
			<path class="st2" d="M115.3,46.3V30.1h13.9v-8.7h-13.9V3.1h-8.7l-0.1,43.1c0,13.5,11,24.5,24.6,24.5h1.1V62h-1.1
				C122.4,62,115.3,54.9,115.3,46.3z"/>
			<path class="st2" d="M159.3,21.4c-13.6,0-24.6,11-24.6,24.6s11,24.6,24.6,24.6c7.1,0,13.9-3.1,18.6-8.5l0.8-0.9l-7.3-5l-0.6,0.7
				c-3,3.2-7.1,4.9-11.5,4.9c-7,0-13.2-4.7-15.2-11.4h39.5l0.1-0.9c1-7.1-1.1-14.2-5.8-19.6C173.2,24.5,166.4,21.4,159.3,21.4z
				 M159.3,30.2c7.1,0,13.2,4.6,15.2,11.3h-30.3C146,34.9,152.2,30.2,159.3,30.2z"/>
			<path class="st2" d="M186.4,45.9v24.5h8.8V45.9c0-8.6,7.1-15.7,15.8-15.7h1.1v-8.8H211C197.4,21.4,186.4,32.4,186.4,45.9z"/>
			<rect x="214.6" y="21.4" class="st2" width="8.8" height="49"/>
			<rect x="214.6" y="9.3" class="st2" width="8.8" height="8.8"/>
			<path class="st2" d="M265.9,70.4V40.3c-0.6-10.6-9.4-18.8-20-18.8s-19.4,8.3-20,18.9v30h8.8V40.7c0.4-5.9,5.2-10.4,11.2-10.4
				c5.9,0,10.8,4.6,11.2,10.3c0,4.8,0,9.6,0,14.3c0,4.8,0,9.6,0,14.3v1.1L265.9,70.4L265.9,70.4z"/>
		</g>
	</g>
	<g>
		<path class="st1" d="M79.3,31.6c-0.9,0-1.7,1.3-1.7,2.4v0.4c0,0.8,0.4,1.5,1.1,1.8c0.2,0.1,0.4,0.1,0.6,0.1s0.4-0.1,0.6-0.1
			c0.6-0.3,1.1-1,1.1-1.8V34C81,32.9,80.3,31.6,79.3,31.6z"/>
		<g>
			<path class="st1" d="M79.8,41.6c0.1,0.5,0.2,0.8,0.2,0.8C79.9,42.1,79.9,41.9,79.8,41.6z"/>
			<path class="st1" d="M78.7,42.4c0,0,0.1-0.3,0.2-0.8C78.8,41.9,78.7,42.1,78.7,42.4z"/>
			<path class="st1" d="M79.3,43c-0.1,0-0.2,0-0.3-0.1C79.1,43,79.2,43,79.3,43z"/>
			<path class="st1" d="M79.6,43c-0.1,0-0.2,0-0.2,0S79.5,43,79.6,43z"/>
			<path class="st1" d="M78.7,42.4c0,0.2,0,0.4,0.2,0.5L79,43C78.8,42.9,78.7,42.7,78.7,42.4z"/>
			<path class="st1" d="M79,43L79,43L79,43z"/>
			<path class="st1" d="M79.3,43L79.3,43L79.3,43L79.3,43z"/>
			<path class="st1" d="M80,42.4c0,0.3-0.2,0.5-0.4,0.6C79.7,42.9,80,42.8,80,42.4z"/>
			<path class="st1" d="M79.7,40.7c0,0.3,0.1,0.6,0.1,0.9C79.8,41.3,79.7,41,79.7,40.7z"/>
			<path class="st1" d="M78.9,41.6C79,41.3,79,41,79,40.7C78.9,41,78.9,41.3,78.9,41.6z"/>
			<path class="st1" d="M80,42.4c0,0-0.1-0.3-0.2-0.8c-0.1-0.3-0.1-0.6-0.1-0.9c-0.1-1.1-0.1-2.6,0.3-4.2c-0.2,0.1-0.4,0.1-0.6,0.1
				s-0.4,0-0.6-0.1c0.4,1.5,0.4,3,0.3,4.2c0,0.3-0.1,0.6-0.1,0.9c-0.1,0.5-0.2,0.8-0.2,0.8c0,0.3,0.2,0.5,0.3,0.6l0,0
				c0.1,0.1,0.2,0.1,0.3,0.1c0,0,0,0,0.1,0c0,0,0.1,0,0.2,0C79.8,42.9,80,42.7,80,42.4z"/>
		</g>
	</g>
	<g>
		<g>
			<path class="st1" d="M83.3,46.5c-0.5,0.1-0.8,0.2-0.8,0.2C82.8,46.6,83,46.6,83.3,46.5z"/>
			<path class="st1" d="M82.5,45.4c0,0,0.3,0.1,0.8,0.2C83,45.5,82.8,45.4,82.5,45.4z"/>
			<path class="st1" d="M81.8,46c0-0.1,0-0.2,0.1-0.3C81.9,45.8,81.9,45.9,81.8,46z"/>
			<path class="st1" d="M81.9,46.3c0-0.1,0-0.2,0-0.2S81.9,46.2,81.9,46.3z"/>
			<path class="st1" d="M82.5,45.4c-0.2,0-0.4,0-0.5,0.2l-0.1,0.1C82,45.6,82.2,45.4,82.5,45.4z"/>
			<path class="st1" d="M81.9,45.7L81.9,45.7L81.9,45.7z"/>
			<path class="st1" d="M81.8,46L81.8,46L81.8,46L81.8,46z"/>
			<path class="st1" d="M82.5,46.7c-0.3,0-0.5-0.2-0.6-0.4C81.9,46.4,82.1,46.7,82.5,46.7z"/>
			<path class="st1" d="M84.2,46.4c-0.3,0-0.6,0.1-0.9,0.1C83.5,46.5,83.9,46.4,84.2,46.4z"/>
			<path class="st1" d="M83.3,45.6c0.3,0.1,0.6,0.1,0.9,0.1C83.9,45.6,83.5,45.6,83.3,45.6z"/>
			<path class="st1" d="M82.5,46.7c0,0,0.3-0.1,0.8-0.2c0.3-0.1,0.6-0.1,0.9-0.1c1.1-0.1,2.6-0.1,4.2,0.3c-0.1-0.2-0.1-0.4-0.1-0.6
				c0-0.2,0-0.4,0.1-0.6c-1.5,0.4-3,0.4-4.2,0.3c-0.3,0-0.6-0.1-0.9-0.1c-0.5-0.1-0.8-0.2-0.8-0.2c-0.3,0-0.5,0.2-0.6,0.3l0,0
				c-0.1,0.1-0.1,0.2-0.1,0.3c0,0,0,0,0,0.1c0,0,0,0.1,0,0.2C82,46.5,82.2,46.7,82.5,46.7z"/>
		</g>
		<g>
			<path class="st1" d="M88.7,45.4c-0.1,0.2-0.1,0.4-0.1,0.6c0,0.2,0.1,0.4,0.2,0.6c0.3,0.6,1,1,1.8,1H91c0.5,0,1-0.2,1.5-0.5h-1.4
				c-0.1,0-0.1,0-0.1-0.1s0-0.1,0.1-0.1h1.8c0.1-0.1,0.3-0.3,0.4-0.4L91,46.7c-0.1,0-0.1,0-0.1-0.1s0-0.1,0.1-0.1l2.3-0.1
				c0-0.1,0.1-0.2,0.1-0.3l-2.3,0.1c-0.1,0-0.1,0-0.1-0.1s0-0.1,0.1-0.1l2.3-0.1c0-0.1-0.1-0.3-0.1-0.4l-2.2,0.1
				c-0.1,0-0.1,0-0.1-0.1s0-0.1,0.1-0.1l2.1-0.1c-0.1-0.1-0.2-0.2-0.4-0.3h-1.7C91,45,91,45,91,44.9s0-0.1,0.1-0.1h1.4
				c-0.5-0.2-1-0.4-1.5-0.4h-0.4C89.6,44.3,89,44.8,88.7,45.4z"/>
		</g>
	</g>
</g>
</svg>
